<svg id="Layer_1" data-name="Layer 1" xmlns="http://www.w3.org/2000/svg" width="1920" height="1080" viewBox="0 0 1920 1080"><defs><style>.cls-1{fill:#020000;}.cls-2{fill:#f45a3a;}.cls-3{fill:#812b1f;}.cls-35,.cls-4{fill:#fff;}.cls-5{fill:#f98;}.cls-6{fill:#ed7960;}.cls-7{fill:#d63434;}.cls-8{fill:#e2ecf8;}.cls-9{fill:#c7d7e9;}.cls-10{fill:#057571;}.cls-11{fill:#058a8b;}.cls-12{fill:#02a1a2;}.cls-13{fill:#d092a6;}.cls-14{fill:#f4aac1;}.cls-15{fill:#f8ad73;}.cls-16{fill:#f6935c;}.cls-17{fill:#fac39b;}.cls-18{fill:#faba9e;}.cls-19{fill:#5a97a9;}.cls-20{fill:#e75b5a;}.cls-21{fill:#ff6563;}.cls-22{fill:#51899a;}.cls-23{fill:#fdd5b8;}.cls-24{fill:#fcdfc7;}.cls-25{fill:#f6b092;}.cls-26{fill:#8c453b;}.cls-27{fill:#fbbfa9;}.cls-28{fill:#f9ae74;}.cls-29,.cls-50{fill:none;}.cls-29{stroke:#8c453b;}.cls-29,.cls-35,.cls-50,.cls-52{stroke-miterlimit:10;}.cls-30{fill:#fac39a;}.cls-31{fill:#f5915b;}.cls-32{fill:#f7ac83;}.cls-33{fill:#ca7863;}.cls-34{fill:#f958a5;}.cls-35{stroke:#f958a5;}.cls-36{fill:#e4c09f;}.cls-37{fill:#c5957b;}.cls-38{fill:#988b7b;}.cls-39{fill:#a99b8e;}.cls-40{fill:#9fd6d6;}.cls-41{fill:#070707;}.cls-42{fill:#0a0a0a;}.cls-43{fill:#f8b9b4;}.cls-44{fill:#fbcfce;}.cls-45{fill:#af468f;}.cls-46{fill:#cc71c8;}.cls-47{fill:snow;}.cls-48{fill:#e01919;}.cls-49{fill:#f5c6ba;}.cls-50,.cls-52{stroke:#000;}.cls-50{stroke-width:5px;}.cls-50,.cls-54{opacity:0.18;}.cls-51{opacity:0.15;}.cls-53{fill:#f3b8a9;}.cls-55{opacity:0.1;}.cls-56{fill:#ccc;}.cls-57{fill:#d4d6d5;}</style></defs><title>start_skaerm</title><rect class="cls-1" width="1919" height="1080"/><path class="cls-2" d="M1143.16,657.81c8.35-48.45,8.46-97.7,83.52-139.58,33.84-16.29,76.89-17,127.07-5.58a225.41,225.41,0,0,1,49.09,26.21c21.39-3,42.58-4.2,63.38-2.09,48,11.22,90.59,26.66,109.49,60.78,42.49,50.67,30.3,104.61,16.15,158.67-7.52,44-22.55,71.54-43.75,85.45-29.55,28.66-55.7,37-82.24,47.68l-262.3-58c-37.21-21.63-63.5-59-70.66-123.9Z"/><path class="cls-3" d="M1160.13,663.76c16.65-25.58,35-46.56,55.29-62.41,48.09-37.59,106.94-46.31,179.25-18.93,102.42,7.25,166.53,59.35,178.44,172.59-45.58,66.23-118.65,91.22-224.18,67.53C1254.46,795,1181.94,749.73,1160.13,663.76Z"/><path class="cls-4" d="M1251.2,609.25c14.5,10.52,34.73,16.12,57,19.92,18.15,13.5,41.44,18.61,67.44,19.29,29.21,10.74,57,18,79.36,11.69,19.2,7.8,37.8,10.38,55.65,6.44a86.63,86.63,0,0,0,38.83,8.58c-28-53-73.81-89.41-154.86-92.75-71.65-29-129.6-16.8-179.75,18.81C1224.59,606.93,1237.22,608.93,1251.2,609.25Z"/><path class="cls-5" d="M1311,981c48.1-.6,92-18.16,129.33-62.15,37.51-40.39,65.2-84.22,76.4-133.83-.88-41.08-7.72-81.29-38.55-118l-23.43-5.44c-25.86,3.22-52.28-2.16-79.06-13.08-25.13.18-47.91-5.49-67.44-19.29l-25.67-5.67c-40.13,19.38-66.5,51.24-83.95,91.2-7.49,57.15-1.6,113,17.09,167.66C1231.8,939.58,1267.05,967,1311,981Z"/><path class="cls-6" d="M1372.17,684.27c-6.38,14.19-13.06,29.85-30.57,98.6-7,21.79-13.47,77.5-20,130.21,13.75-44.29,27.86-89,37-127.9C1364.43,768.59,1368.21,725.2,1372.17,684.27Z"/><path class="cls-7" d="M641.78,605.14c59.65-46,107.06-95.39,136.66-149.78,37.31-36.4,73.35-34.22,108.95-18.47l13,13.1,6.67-16.44c28.82-38.25,67.37-41.3,112.89-19.14,45.22,47.73,109.12,75.51,179.71,96.14-46.91-7.76-75.94,19.12-95.91,63.57-21.69,56.33-87,96.14-160.31,121.79C871.74,699,806,693.48,779.87,659,696.85,605.69,663.17,595.2,641.78,605.14Z"/><path class="cls-4" d="M781.55,577.27c17.74-19.74,35.53-39.4,59-50.35,9.19-6.29,24.56-8,43.31-7.34,5.54,1.09,12.11,7.68,26.55,5.24,13.3-3.31,24.59-7.79,31.21-15,12.84-6,26.88-9.33,43.32-7.34,22.14,5.8,44.5,15.68,67,29-26.41,3.05-50.65,8.12-71.51,16.3-11.15,11.4-31.45,18.62-56.78,23.54a171.7,171.7,0,0,1-63.3,1C825.9,568.11,801.55,571.15,781.55,577.27Z"/><path class="cls-8" d="M989.76,540.28l31.49,263.83c-8.93,8.57-8.16,15.95,2.63,22.09l142.35-17c10.3-7.73,9.06-15.51-2.78-23.32L1132.7,528.2c-5-39.31-23.66-67.5-61.79-79.75-4.86-18.57-12.3-29-23.3-28.34-12.49.59-18.61,10.74-15.83,34.25C998.3,474,989.15,504.9,989.76,540.28Z"/><path class="cls-4" d="M1026.46,488c-10,3.23-13.79,10.08-13.9,19.08,5,9.76,11.5,12.57,17.56,11.6,8-2.07,12.8-7.57,14.2-16.63C1041,492.83,1034.48,489.07,1026.46,488Z"/><path class="cls-9" d="M1092.82,793.7l71.17-8.49q16.18,9.88,2.78,23.31l-142.34,17c-11.07-6.41-12.73-13.7-2.64-22.09Z"/><path class="cls-10" d="M1631,469.35V736.48l12.23-9.9,11.88,9.54,12.23-9.89,12.24,9.89,12.23-9.18,12.24,9.18,12.23-9.18,13,9.18,11.51-8.48,12.24,8.48,12.23-9.18,13,9.18,5.75-4.24c-24-15.75-34.86-40.17-36-85.5,8-50.85,37.64-83.62,96.44-91.87,21-.43,39.11,3.59,54.69,11.3V471.12l-10.79,7.77L1876.05,469l-12.23,9.89L1851.58,469l-11.51,9.89L1827.83,469l-12.95,9.89L1803.36,469l-12.95,9.89-13-9.89-12.24,9.89L1753.71,469l-12.24,9.89-13-9.89-12.24,10.6L1704.77,469l-12.24,9.89L1680.3,469l-13,9.89L1655.83,469l-13,9.89Z"/><path class="cls-11" d="M1650.79,534.72V670.4c3.38,21.67,15.53,31.58,36,30.39h70.82c-7.59-15.91-10.72-34.1-9.65-54.41,12.14-57.88,45.07-87.44,96.44-91.87a183.72,183.72,0,0,1,32.6,3.32l-.22-33c-4.38-18.19-18.48-22.92-36.7-21.91H1692.53C1666.3,501.23,1651.49,510.94,1650.79,534.72Z"/><path class="cls-12" d="M1672.38,575.71a128.72,128.72,0,0,0,0,55.12c14.59,29.23,30.26,46.33,46.78,53.71a143.62,143.62,0,0,0,35.78,10.12l-5-17.07c-12.94-.93-25.86-6.14-38.73-16.37-14.1-11.71-22.42-30.4-28.07-52.3.66-19.12,3.43-37.89,15.83-55.12,10.45-12,24-21.49,41-28.27,19.07-4.95,38.93-3.71,59.74,5,13.48,6.33,24.87,14.41,32.5,25.6l14.19-1.88c-3.23-9-17.06-21.47-36.62-35.73-15.74-6.88-36.59-10.82-68.37-7.78-15.42,3.75-33.37,13.12-46.06,26.86C1686.86,544.47,1679.53,559.53,1672.38,575.71Z"/><path class="cls-13" d="M1851.58,756.62c60.84-7.1,98.15-38.4,102.92-103.18-8.41-56.72-38.92-91.16-96.52-98.28-64.7,3.5-99,36.22-110,91.22C1750.31,715.83,1785.32,752.1,1851.58,756.62Z"/><path class="cls-14" d="M1850.47,745c55.75-6.27,89.94-33.89,94.31-91.06-7.7-50.06-35.66-80.45-88.44-86.73-59.29,3.09-90.69,32-100.83,80.5C1757.67,709,1789.76,741,1850.47,745Z"/><path class="cls-13" d="M1822.8,656.27c18.61,10.62,36.64,11.18,54-.71-1.93,14.62-8.37,25.44-25.91,26.86C1828.79,679.61,1826,667.86,1822.8,656.27Z"/><path class="cls-15" d="M1183.39,339.56c-.89-28.83,9-47.85,35.21-52.16,29.39-3.06,45.62,10.55,52.35,36.2l20.85,111.57c28.86-5.23,50.12,4.73,59.76,37.89,7.32,28-5.15,49.07-38.34,62.9-20.8,2.8-39.3-.92-52.42-19.92-5.3,20.48-18.47,34.52-45,37.68-28.28-2.72-48.39-14.35-52.62-43.27-2.37-33.31,11.72-52.73,41-59.32Z"/><path class="cls-16" d="M1229.5,338.78c6.79,8.66,15.43,9.65,24.78,7.68,10.35-5.52,15.25-13.37,17.25-22.46-8.38-27.2-25.4-39.92-51.54-37.36-26.34,5.61-38.84,23-36,53.33,7.09,9.14,15.53,14.65,26,14.56C1220.11,351.91,1226.75,346.76,1229.5,338.78Z"/><path class="cls-17" d="M1193.82,360.53l16,87.56q23.84-.52,43.39,20.55l-21-115.1C1223,364,1209,363.7,1193.82,360.53Z"/><path class="cls-17" d="M1205.14,456.05l16.32,89.53c-23.11-.79-42.93-8.12-52.34-36.2C1168.33,481.5,1178.76,462.48,1205.14,456.05Z"/><path class="cls-18" d="M1221.07,292.54l7,38.37c-2.83,6.13-9,9.86-17.08,12.26-7.6.78-14.93-1.37-21.82-8.22Q1191.69,296.12,1221.07,292.54Z"/><path class="cls-19" d="M947.82,818.1l-64.69,75,25.93,20.81,28.34-31.61,4.39,44.29c-34.37,13.6-55.65,37.45-55.37,78.15,6.65,54.22,38,74.94,84,75.94l-2.8-31.88c-26.81-4-46.81-15.38-50.11-44.79,2.26-29.41,19-42.17,42-47.85Z"/><path class="cls-20" d="M1156.25,1025.15l3,33.87-16.94,1.49L1130.82,930c29.69-7.29,46.79-22.47,42.7-50.94-2.26-22-22.94-39.48-50.67-39.71L1120,806.49c43.48-3.63,77.36,24.49,84.18,66.88,8.53,43.52-14.42,69.73-53.58,87l2.8,31.87,31.88-2.8,2.89,32.88Z"/><path class="cls-21" d="M1120,806.49l2.89,32.87c-27.79,5.7-39.85,23.13-40.88,48.77,3.63,27.81,20.81,40.79,48.85,41.88l11.47,130.5-16.93,1.48-3-33.86-31.88,2.8-2.89-32.88,32.88-2.89-2.81-31.87c-38.15-7.08-62.76-29.54-69.58-72.19C1046.75,844.8,1076,814.31,1120,806.49Z"/><path class="cls-22" d="M1022.46,879.3l-75.68-61.61,12.08,137.47c29.52,2.52,44.51,16.69,49.59,38.81,2.17,28.49-11.25,47-41.36,54.83l2.81,31.88c44.42-8.94,70.32-34.74,70.95-83.53-1.6-39-24.89-63.11-68.68-73.27l-4-45.83,33.59,28.17Z"/><path class="cls-23" d="M1429.43,318c-42.84,7.43-64.61,67.46-62.59,122.86.49,69,23.19,110.77,62.59,132.14,50.55-18.62,68-68.93,69.55-134.45C1500,377.89,1481.19,330,1429.43,318Z"/><path class="cls-24" d="M1423.64,330.75c-26.09,29.47-38.74,64.13-37.09,104.32-4.55,40.59,13.79,83.76,37.09,127.5-30.49-31-52.66-69.55-51-129.82C1379,379.77,1395.35,344.58,1423.64,330.75Z"/><path class="cls-25" d="M1431.75,331.91c-26.18,34.89-38.87,75.69-37.09,122.86.48,45.07,12.3,75,37.09,102,22.72-17.79,38-52.51,41.73-113.59C1469.09,402.51,1455.78,365.19,1431.75,331.91Z"/><path class="cls-26" d="M1432.06,416.4c-10,16.39-14.83,35.55-14.15,57.7q-.12,28,14.15,47.9c8.67-8.36,14.5-24.66,15.92-53.34C1446.31,449.56,1441.23,432,1432.06,416.4Z"/><path class="cls-27" d="M1431.75,331.91v85.77a134.41,134.41,0,0,0-13.91,58c2,19.93,6.69,35.24,13.91,46.36v34.77c-21.63-21.38-39.66-62-36.09-111.27-1.3-46.65,13.61-83.13,36.09-113.59"/><circle class="cls-26" cx="1431.75" cy="380.59" r="6.95"/><path class="cls-28" d="M1025.41,709c-41.63-3.21-66,18.15-76.09,60-.69,40.54,20.17,64.33,57,75.67,43.67.58,70-18.27,77.79-57.74C1087.54,744.52,1067,719.21,1025.41,709Z"/><path class="cls-29" d="M1016.87,777l-1,7.47c-4.92-1.35-7.38-4.23-7.41-8.66,1.86-4.83,5-7.44,9.49-7.6l-1.07,8.79"/><path class="cls-30" d="M1024.72,717.53l-4.8,34.22L1008,836.36c-35.48-12.11-55.61-32.6-50.08-67.62,7.43-32.35,27.49-51.68,66.77-51.21"/><path class="cls-31" d="M1044.11,780.84c-1.85-15.2-9.15-25.46-24.26-28.65q-21.84-.27-27.24,21.42c-2.62,15,5.2,24.23,20.65,29.14C1027.23,804.34,1037.75,797.63,1044.11,780.84Z"/><path class="cls-32" d="M1018.41,766.09l1.33-9.52q-15.93-2.75-23.88,15.48-3.76,19,17.86,27.38l4.69-33.34"/><path class="cls-33" d="M1028.26,778.62c-.22-6-2.54-10.78-9.85-12.53-7.67.08-10.93,3.83-11.94,9.47-1.13,5.92,2,9.9,8.64,12.33C1022,788.21,1026.33,785.08,1028.26,778.62Z"/><path class="cls-28" d="M902.66,713c-41.62-3.22-66,18.15-76.08,60-.69,40.54,20.17,64.32,57,75.67,43.66.57,69.95-18.27,77.79-57.74C964.79,748.49,944.3,723.17,902.66,713Z"/><path class="cls-29" d="M894.13,781l-1,7.47q-7.38-2-7.41-8.65c1.86-4.83,5-7.44,9.49-7.61L894.13,781"/><path class="cls-30" d="M902,721.5l-4.81,34.21-11.88,84.62c-35.48-12.11-55.62-32.6-50.08-67.62C842.63,740.35,862.7,721,902,721.5"/><path class="cls-31" d="M921.36,784.81c-1.84-15.21-9.15-25.46-24.25-28.65-14.57-.19-23.63,7-27.24,21.42-2.63,15,5.2,24.23,20.64,29.13C904.48,808.31,915,801.6,921.36,784.81Z"/><path class="cls-32" d="M895.66,770.06l1.34-9.52q-15.94-2.76-23.89,15.47Q869.36,795,891,803.4l4.68-33.34"/><path class="cls-33" d="M905.52,782.58c-.22-6-2.54-10.78-9.86-12.52-7.66.08-10.92,3.83-11.93,9.46-1.14,5.93,2,9.91,8.63,12.33C899.23,792.18,903.58,789,905.52,782.58Z"/><path class="cls-34" d="M524.63,874.66l-27.19.93,23-34,20-1L616.6,728c-10.52-2.06-17.94-6.64-16.52-18.42.18-6.75,3.15-10.72,8.4-12.42l43.34-10.52,7.46,46.09c-3,7-6.46,13.25-14.79,12.93-9.87.43-13.52-4.16-16.86-9l-77,112.09,6.26,17.51-23,34Z"/><polygon class="cls-35" points="547.04 841.53 524.96 874.17 533.88 900.24 557.71 865.03 547.04 841.53"/><polygon class="cls-36" points="1962.92 729.38 1451.84 692.19 1438.99 868.73 1466.63 847.51 1938.22 881.83 1950.79 896.17 1962.92 729.38"/><rect class="cls-37" x="1633.4" y="547.77" width="139.14" height="478.5" transform="translate(794.43 2428.38) rotate(-85.84)"/><polyline class="cls-38" points="1363.03 993.09 1368.12 923.14 1466.63 847.51 1938.22 881.83 2013.62 967.85 2008.37 1040.05 1363.03 993.09"/><polyline class="cls-39" points="1386.25 923.33 2000 967.99 1925.4 886.57 1466.21 853.15 1386.25 923.33"/><path class="cls-37" d="M1414.78,1108l32.72,2.38,4.31-59.23-32.72-2.38Z"/><polygon class="cls-36" points="1363.63 992.57 1365.03 973.39 1338.48 995.27 1335.04 1042.66 2031.15 1093.32 2034.6 1045.93 2009.24 1020.27 2007.76 1040.57 1363.63 992.57"/><path class="cls-40" d="M1471.84,807.06c20.84,22.28,24.61,42.65,6.93,60.62,84.43,3.39,168.15,6.92,210.73,18.73-15-23.49-15.71-44.87,4.6-63.18C1615,810.27,1540,803.53,1471.84,807.06Z"/><path class="cls-40" d="M1718,822.7c11.94,24.29,11.66,46.34-4.76,65.44a761.14,761.14,0,0,1,205.34,14.94c-10.36-19.93-7.72-41.91,4.76-65.44C1857.93,827.86,1789.26,823.23,1718,822.7Z"/><path class="cls-41" d="M1378.42,1003.05c-1.21-47.74,28.72-79.61,97-91.93-1.36-5.35-3.17-10.09-7.56-11.33a19.59,19.59,0,0,0-13.85,2.52c-4.63,3-5.36,7.6-4.51,12.88-3.48-5.52-8.06-9.31-14.38-10.36-5.06-.55-9.31,1.38-12.59,6.29-4.25,4.65-4,9.81-2.52,15.11-5.26-5.77-12.59-11.33-16.37-7.55-6.3,2.52-11.34,10.07-11.34,10.07-.11,6.17,2.16,12.16,5.43,18.08-5.7-1.94-12-2.07-19.28.81-4.21,2.63-5.08,6.22-5,10.08.19,5.75,4.58,9.84,9.3,13.8-5.7,1.43-11.13,3.66-15.59,8.86-2.58,2.86-2.52,10.08,0,16.37,2.4,3,5.88,4.2,10.76,3.1"/><path class="cls-42" d="M1248.08,910.49c33,4.1,57.33,17.09,73.65,38.31,15.51,14.28,21.73,32.06,24.58,51.1,5.89-2.12,9.66-5.95,10.7-12,2.1-4.83-.25-9.88-6.29-15.11-4-4-7.84-3.16-11.52.23,3.67-4.63,6.52-9.47,5.22-15.34-1.57-7.11-5-11.56-10.07-13.86-4.23-2.35-9.27-1.27-14.67,1.38q7.42-6.91,3.33-16.49c-2.27-6.18-5.86-7.92-10.07-7.55-5.18.32-9.84,3-14.23,7,2-6,3-11.64.38-15.85-2.9-3.42-7.22-5.74-13.86-6.29-5.33,2.07-6.75,6.33-7.9,10.74.05-6.54-.69-12.57-5.95-15.78-4-2.95-8.75-3.33-13.85-2.52-4.89,2.11-7.75,7-10.08,12.59"/><path class="cls-43" d="M1216.6,921.83c-20.64,18.68-30.77,41.93-31.48,69.26-1.41,55.88,26.51,82.55,76.82,86.89,39-3.9,67.08-18.63,78.07-50.37l41.56,1.26c17,35,45.12,50.62,83.11,49.11,46.5-5.55,75-72.85,71.78-78.08,1.27-.67-5.77-57.67-34-78.07.55-64.66,5.23-120.93,27.71-141l21.4-7.56c4.48-17.32,2.46-29.46-13.85-30.22-17.54,3-32.35,12.56-42.81,32.74-20.27,23.58-18.34,81.06-18.89,134.74-24.61,1.85-47.2,9.68-66.75,26.45-23.71,16.61-31.51,40-31.48,66.74h-31.48c0-25.07-13.16-47.19-37.78-66.74-13.07-13.69-31.61-23.61-60.45-26.45,0-58.61-3.13-114.86-32.74-151.11-10.55-10.42-22.84-16.61-37.78-16.37-5.78,8.4-6.68,17.79-5,27.7,5.5,4.62,13.23,6.38,21.4,6.3C1221.07,817,1223.7,867.36,1216.6,921.83Z"/><path class="cls-44" d="M1458.39,929.38v141c-37.66,0-65.7-14.87-70.52-65.48C1391.92,954.05,1414.23,927.28,1458.39,929.38Z"/><path class="cls-44" d="M1265.71,923.09v141c-37.65,0-65.69-14.88-70.52-65.49C1199.25,947.75,1221.56,921,1265.71,923.09Z"/><path class="cls-44" d="M1185.12,750.56c-5,2.52-3.28,12.6,0,12.6l16.37,8.81c21.14,29.21,25.9,80,27.71,134.75a10.5,10.5,0,0,0,10.07,0c-.35-42.59-.83-84.47-6.3-99.49q-13.48-31.69-23.92-44.07C1203,757,1195.65,752.18,1185.12,750.56Z"/><path class="cls-22" d="M1556.25,445.41c11.22,4.14,19.07,11.18,21,23.3,3.32,15.32-.53,26.08-9.54,33.55a32.44,32.44,0,0,0,4.16,20.58c11.22,5.42,18.5,13.38,21.24,24.28,5.06,11.17-1.5,25.7-10.12,40.81.38,12.37,6,20.63,14.57,26.64,4.74,3.73,5.22,7.93,5.52,12.15a47.71,47.71,0,0,0-21.61-16c-9-9.79-11.49-20.84-9.68-32.74,7-9.23,9.52-17.91,8-26.1-1.75-5.27-5.92-11.55-20.84-22.31-6.94-12.94-7.55-21.27-2.4-27.06-8.43-2.06-14.14-10.06-17.12-24.09C1535.36,460.37,1540.85,449.3,1556.25,445.41Z"/><path class="cls-22" d="M1521.83,492.16c11.22,4.14,19.07,11.18,21,23.29,3.32,15.33-.53,26.08-9.54,33.56a32.46,32.46,0,0,0,4.16,20.58c11.22,5.42,18.5,13.38,21.24,24.28,5.06,11.17-1.5,25.69-10.12,40.81.38,12.37,6,20.63,14.57,26.64,4.74,3.73,5.22,7.93,5.52,12.15a47.73,47.73,0,0,0-21.61-16c-8.95-9.79-11.48-20.83-9.68-32.73,7-9.24,9.52-17.92,8-26.1-1.75-5.27-5.92-11.55-20.83-22.31-7-12.94-7.56-21.27-2.41-27.06-8.43-2.06-14.14-10.06-17.12-24.09C1500.94,507.12,1506.43,496.05,1521.83,492.16Z"/><path class="cls-22" d="M1616.25,520c11.21,4.15,19.07,11.19,21,23.3,3.32,15.32-.54,26.08-9.54,33.55a32.48,32.48,0,0,0,4.16,20.59c11.21,5.42,18.49,13.38,21.23,24.27,5.06,11.17-1.5,25.7-10.11,40.82.38,12.36,6,20.62,14.57,26.64,4.73,3.72,5.21,7.92,5.51,12.14a47.76,47.76,0,0,0-21.6-16c-9-9.79-11.49-20.84-9.68-32.73,7-9.24,9.51-17.92,8-26.1-1.75-5.28-5.92-11.56-20.83-22.32-7-12.93-7.55-21.26-2.41-27.06-8.42-2.06-14.14-10.06-17.11-24.08C1595.35,535,1600.85,523.91,1616.25,520Z"/><path class="cls-45" d="M503,906.11l10.61-3.9c5-2.69,8.18-.86,9.53,5.18l31.91,65.25L529.52,985l-27.45-68.47C500,912.11,499.08,908.14,503,906.11Z"/><path class="cls-46" d="M531.52,991.34l51.62,107.57c2.11,6.94,5.21,9,9.52,5.18l9.87-4.51c5.38-.7,6.28-5,1.25-13.94L560.5,978.56c-1.64-6.44-4.42-10-10.28-5.79L534.44,980C526.54,981.15,527.67,985.72,531.52,991.34Z"/><path class="cls-47" d="M543.28,995.54l9.21,21.4c7.11,5.25,12.11,4,13.42-5.72l-9.21-21.4C548.7,981.85,543.12,984,543.28,995.54Z"/><rect class="cls-48" x="545.76" y="998.42" width="14.8" height="3.25" transform="translate(-355.7 307.19) rotate(-23.73)"/><rect class="cls-49" x="587.06" y="941.69" width="28.63" height="41.61" rx="14.32" transform="translate(-274.3 240.53) rotate(-18.5)"/><path class="cls-49" d="M705.13,762.31s-1.57,40.11-15.69,49.36-74,19.19-80,27.77c-4.91,7-23.51,52.7-20.4,81.75,3.14,29.31,9.42,164,9.42,164H879.25s20.39-173.23,17.25-191.74S884,848.69,857.29,830.18s-56.47-20-56.47-37a155.88,155.88,0,0,0-3.14-30.85Z"/><path class="cls-50" d="M655.35,1086v0Z"/><path class="cls-50" d="M831,1085.4l3.94-136.73Z"/><g class="cls-51"><path class="cls-52" d="M766.08,1028.07c-32.1,0-59.35-32.51-61.58-74.53l4-.31c2.09,39.43,27.56,70,57.53,70,1.13,0,2.26,0,3.4-.13,15.2-1.16,29.09-10,39.11-24.76s15-34,14-53.82l4-.31c1.12,21.08-4.16,41.41-14.86,57.22s-25.65,25.29-42,26.54C768.52,1028,767.3,1028.07,766.08,1028.07Z"/></g><ellipse class="cls-53" cx="761.64" cy="972.51" rx="6.38" ry="8.37"/><g class="cls-54"><path class="cls-49" d="M671,1026.06s-92.92-12.91-87.32-81.2c0,0,42.49-19.82,48.77-30.6,10.14-17.37,14.64-44.91,13.27-47.92"/><path d="M670.8,1027.64c-.24,0-23.77-3.4-46.28-15.16-13.3-6.94-23.67-15.41-30.83-25.18-9-12.28-12.89-26.6-11.58-42.57l.07-.93.84-.39c.11,0,10.72-5,22-11.21,18.53-10.24,24.44-15.84,26.13-18.74,9.88-17,14.16-43.63,13.18-46.48l2.92-1.3c1.79,4-3.24,32.05-13.35,49.39-2.75,4.72-12,11.42-27.35,19.93-9.49,5.24-18.53,9.6-21.28,10.9-1,14.8,2.68,28.08,11,39.48,6.86,9.37,16.84,17.52,29.69,24.24,22,11.52,45.08,14.83,45.31,14.86Z"/></g><path class="cls-53" d="M582.12,955.21l-3.87-8.78a2.88,2.88,0,0,1,2.71-4l8.17.2a2.88,2.88,0,0,1,2.51,4.17l-4.94,8.59C585.61,957.52,583.11,957.45,582.12,955.21Z"/><path class="cls-55" d="M895.52,893.42c-3.14-18.51-12.53-44.73-39.14-63.24s-56.36-20-56.36-37a156.36,156.36,0,0,0-3.13-30.85H749.31q-3.09,161.52-2.21,322.85H878.3S898.65,911.93,895.52,893.42Z"/><path class="cls-56" d="M630.07,769.27,827.63,624.93a11.13,11.13,0,0,1,14.9,1.71l52.29,62.58A9.52,9.52,0,0,1,893,703.15L695.43,847.5a11.15,11.15,0,0,1-14.9-1.71L628.24,783.2A9.52,9.52,0,0,1,630.07,769.27Z"/><ellipse class="cls-57" cx="828.04" cy="730.23" rx="9.07" ry="8.48"/><ellipse class="cls-57" cx="832.72" cy="645.98" rx="9.07" ry="8.48"/><ellipse class="cls-57" cx="853.19" cy="670.56" rx="9.07" ry="8.48"/><ellipse class="cls-57" cx="871.91" cy="695.13" rx="9.07" ry="8.48"/><ellipse class="cls-57" cx="850.27" cy="712.09" rx="9.07" ry="8.48"/><ellipse class="cls-57" cx="810.48" cy="661.78" rx="9.07" ry="8.48"/><ellipse class="cls-57" cx="806.39" cy="746.61" rx="9.07" ry="8.48"/><ellipse class="cls-57" cx="785.91" cy="761.24" rx="9.07" ry="8.48"/><ellipse class="cls-57" cx="828.62" cy="729.65" rx="9.07" ry="8.48"/><ellipse class="cls-57" cx="763.68" cy="777.03" rx="9.07" ry="8.48"/><ellipse class="cls-57" cx="741.45" cy="793.42" rx="9.07" ry="8.48"/><ellipse class="cls-57" cx="719.8" cy="810.38" rx="9.07" ry="8.48"/><ellipse class="cls-57" cx="696.4" cy="826.76" rx="9.07" ry="8.48"/><ellipse class="cls-57" cx="675.92" cy="803.95" rx="9.07" ry="8.48"/><ellipse class="cls-57" cx="651.94" cy="778.79" rx="9.07" ry="8.48"/><ellipse class="cls-57" cx="788.25" cy="677.58" rx="9.07" ry="8.48"/><ellipse class="cls-57" cx="766.02" cy="693.37" rx="9.07" ry="8.48"/><ellipse class="cls-57" cx="744.37" cy="709.17" rx="9.07" ry="8.48"/><ellipse class="cls-57" cx="720.39" cy="727.31" rx="9.07" ry="8.48"/><ellipse class="cls-57" cx="696.98" cy="742.52" rx="9.07" ry="8.48"/><ellipse class="cls-57" cx="673.58" cy="758.31" rx="9.07" ry="8.48"/><ellipse class="cls-4" cx="871.91" cy="695.42" rx="6.14" ry="5.85"/><ellipse class="cls-4" cx="850.27" cy="712.39" rx="6.14" ry="5.85"/><ellipse class="cls-4" cx="829.21" cy="729.35" rx="6.14" ry="5.85"/><ellipse class="cls-4" cx="806.39" cy="746.32" rx="6.14" ry="5.85"/><ellipse class="cls-4" cx="785.33" cy="760.95" rx="6.14" ry="5.85"/><ellipse class="cls-4" cx="763.68" cy="776.74" rx="6.14" ry="5.85"/><ellipse class="cls-4" cx="741.45" cy="793.71" rx="6.14" ry="5.85"/><ellipse class="cls-4" cx="719.8" cy="810.67" rx="6.14" ry="5.85"/><ellipse class="cls-4" cx="696.4" cy="827.06" rx="6.14" ry="5.85"/><ellipse class="cls-4" cx="675.92" cy="803.65" rx="6.14" ry="5.85"/><ellipse class="cls-4" cx="651.94" cy="778.5" rx="6.14" ry="5.85"/><ellipse class="cls-4" cx="673.58" cy="758.61" rx="6.14" ry="5.85"/><ellipse class="cls-4" cx="696.98" cy="742.22" rx="6.14" ry="5.85"/><ellipse class="cls-4" cx="720.97" cy="727.6" rx="6.14" ry="5.85"/><ellipse class="cls-4" cx="744.37" cy="709.46" rx="6.14" ry="5.85"/><ellipse class="cls-4" cx="766.02" cy="693.66" rx="6.14" ry="5.85"/><ellipse class="cls-4" cx="788.25" cy="677.87" rx="6.14" ry="5.85"/><ellipse class="cls-4" cx="810.48" cy="661.49" rx="6.14" ry="5.85"/><ellipse class="cls-4" cx="832.72" cy="645.69" rx="6.14" ry="5.85"/><ellipse class="cls-4" cx="853.19" cy="670.85" rx="6.14" ry="5.85"/></svg>
