<?xml version="1.0" standalone="no"?>
<!DOCTYPE svg PUBLIC "-//W3C//DTD SVG 20010904//EN"
 "http://www.w3.org/TR/2001/REC-SVG-20010904/DTD/svg10.dtd">
<svg version="1.0" xmlns="http://www.w3.org/2000/svg"
 width="945.000000pt" height="945.000000pt" viewBox="0 0 945.000000 945.000000"
 preserveAspectRatio="xMidYMid meet">
<metadata>
Created by potrace 1.11, written by Peter Selinger 2001-2013
</metadata>
<g transform="translate(0.000000,945.000000) scale(0.100000,-0.100000)"
fill="#000000" stroke="none">
<path d="M120 8204 c0 -6 68 -270 208 -804 17 -63 49 -185 71 -270 22 -85 63
-243 91 -350 28 -107 67 -256 86 -330 19 -74 42 -160 50 -190 9 -30 17 -62 19
-70 2 -8 24 -94 50 -190 25 -96 48 -184 50 -195 3 -11 16 -63 30 -115 14 -52
27 -102 29 -110 7 -29 141 -543 178 -680 11 -41 23 -91 28 -110 4 -19 29 -114
55 -210 26 -96 48 -182 50 -190 2 -8 17 -67 33 -130 17 -63 45 -169 62 -235
17 -66 44 -169 60 -230 68 -259 130 -499 230 -880 21 -82 66 -255 99 -383 34
-128 75 -285 92 -349 17 -63 33 -127 35 -141 3 -14 7 -29 10 -34 3 -5 7 -18 9
-31 4 -20 40 -157 175 -672 73 -278 166 -636 174 -667 l6 -28 503 0 503 0 81
283 c45 155 102 354 128 442 26 88 48 168 50 178 2 9 6 21 9 25 3 5 7 19 10
33 3 13 46 166 96 339 51 173 105 360 120 415 16 55 53 186 83 290 85 292 200
690 294 1015 111 384 148 513 183 635 15 55 62 217 103 360 42 143 114 393
161 555 46 162 106 367 131 455 26 88 53 185 61 215 13 46 34 89 34 67 0 -9
24 -94 70 -252 23 -77 43 -147 45 -156 2 -9 26 -93 54 -185 27 -93 84 -288
126 -434 92 -318 191 -659 287 -985 38 -132 74 -256 79 -275 6 -19 15 -51 20
-70 6 -19 14 -48 19 -65 4 -16 36 -124 70 -240 58 -199 82 -282 100 -350 5
-16 34 -115 64 -220 31 -104 64 -215 72 -245 9 -30 24 -82 34 -115 10 -33 20
-69 23 -80 3 -11 37 -128 75 -260 159 -545 376 -1290 391 -1345 l7 -25 504 0
504 0 33 130 c19 72 45 171 58 220 66 254 107 412 110 425 2 8 11 42 20 75 9
33 32 119 50 190 18 72 45 175 60 230 14 55 42 159 60 230 19 72 43 166 55
210 45 169 92 350 94 360 2 6 6 24 11 40 14 55 107 410 110 425 2 8 36 137 75
285 38 149 84 324 101 390 17 66 40 152 50 190 15 54 176 672 195 745 2 8 13
51 25 95 11 44 23 87 25 95 4 18 98 377 125 480 11 41 21 82 23 91 3 9 18 67
35 130 16 63 43 166 60 229 34 133 99 380 182 700 32 124 83 320 113 435 30
116 71 271 91 345 43 167 136 520 141 540 2 8 21 81 42 163 l38 147 -607 0
c-570 0 -608 -1 -613 -17 -5 -16 -132 -533 -141 -573 -2 -8 -13 -55 -25 -105
-12 -49 -23 -97 -25 -105 -2 -8 -33 -136 -69 -285 -37 -148 -96 -389 -131
-535 -36 -146 -97 -395 -136 -555 -39 -159 -72 -297 -74 -305 -2 -8 -8 -33
-13 -55 -6 -22 -13 -51 -16 -65 -4 -22 -28 -120 -137 -565 -17 -66 -32 -131
-35 -145 -3 -14 -10 -43 -16 -65 -6 -22 -13 -49 -15 -59 -2 -10 -13 -55 -24
-100 -12 -45 -22 -88 -24 -96 -2 -8 -18 -73 -35 -145 -17 -71 -33 -137 -35
-145 -2 -8 -14 -61 -29 -116 -14 -56 -27 -112 -30 -125 -7 -32 -7 -34 -61
-253 -26 -105 -48 -197 -50 -205 -2 -9 -38 -155 -80 -326 -42 -170 -80 -330
-86 -355 -18 -83 -30 -122 -35 -117 -3 3 -14 38 -24 78 -10 41 -45 169 -78
284 -56 197 -115 405 -318 1130 -46 165 -91 323 -99 350 -7 28 -43 156 -80
285 -36 129 -74 267 -85 305 -12 39 -25 86 -30 105 -6 19 -28 98 -50 176 -22
78 -51 181 -64 230 -14 49 -39 139 -56 199 -17 61 -33 117 -35 125 -2 8 -37
137 -79 285 -42 149 -104 367 -137 485 -33 118 -66 238 -74 265 -25 85 -147
519 -151 535 -2 8 -10 40 -19 70 -9 30 -25 87 -35 125 -11 39 -39 140 -64 225
l-44 155 -464 3 -465 2 -21 -72 c-12 -40 -42 -147 -67 -238 -25 -91 -54 -194
-65 -230 -10 -36 -46 -164 -80 -285 -99 -355 -172 -617 -265 -945 -26 -91 -48
-169 -49 -175 -1 -5 -10 -37 -20 -70 -10 -33 -19 -67 -21 -76 -3 -14 -136
-487 -170 -604 -29 -101 -288 -1023 -310 -1105 -13 -47 -33 -119 -44 -160 -12
-41 -30 -106 -41 -145 -16 -58 -100 -352 -115 -405 -2 -8 -15 -55 -29 -105
-13 -49 -50 -180 -81 -290 -31 -110 -58 -207 -60 -215 -18 -72 -79 -278 -86
-290 -7 -13 -9 -13 -9 0 -1 8 -3 22 -5 30 -2 8 -11 44 -20 80 -9 36 -18 72
-20 80 -5 22 -68 281 -115 475 -23 94 -43 177 -45 185 -2 8 -33 137 -70 285
-36 149 -68 277 -70 285 -11 51 -211 873 -311 1280 -42 168 -78 316 -80 330
-3 14 -28 115 -55 225 -27 109 -51 206 -53 215 -2 8 -6 26 -9 40 -4 14 -31
126 -61 250 -30 124 -80 329 -111 455 -49 201 -99 409 -110 455 -2 8 -35 143
-73 300 -39 157 -78 320 -88 363 l-18 77 -608 0 c-334 0 -608 -3 -608 -6z"/>
</g>
</svg>
